# xmcd
# 
# Track frame offsets:
#     151
#     19713
#     37797
#     57892
#     73068
#     87062
#     97196
#     120580
#     135604
#     151153
#     166569
#     179155
#     197856
#     216979
#     239071
#     257044
#     276413
# 
# Disc length: 3844
# 
# Revision: 1
# Processed by: cddbd v1.5.2PL0 Copyright (c) Steve Scherf et al.
# Submitted via: BonkEnc v1.0.8
# 
DISCID=f40f0211
DTITLE=Speed Car Emotion - 98 Vol. 1
DYEAR=0
DGENRE=
TTITLE0=Rainbow - Can't let you go
TTITLE1=Tina Turner - River deep, mountain high
TTITLE2=Chris Rea - Unknown
TTITLE3=Dire Straits - Money for nothing
TTITLE4=Electric Light Orchestra - Unknown
TTITLE5=ZZ Top - Tush
TTITLE6=Aerosmith and Run DMC - Unknown
TTITLE7=Chumbawamba - Tubthumping
TTITLE8=Rolling Stones - Flip the switch
TTITLE9=Charlie Daniels Band - Boogie Woogie
TTITLE10=Loggins and Messina - Your Mama Don't Dance
TTITLE11=Rodney Crowell - Oh King Richard
TTITLE12=Eros Ramazzoti - Quanto Amore Sei
TTITLE13=Dire Straits - Heavy Fuel
TTITLE14=ZZ Top - Gimme all your lovin'
TTITLE15=Poco - A good feeling to know
TTITLE16=Rainbow - Maybe next time
EXTD=
EXTT0=
EXTT1=
EXTT2=
EXTT3=
EXTT4=
EXTT5=
EXTT6=
EXTT7=
EXTT8=
EXTT9=
EXTT10=
EXTT11=
EXTT12=
EXTT13=
EXTT14=
EXTT15=
EXTT16=
PLAYORDER=
